<mxfile host="app.diagrams.net" modified="2024-07-08T04:00:21.629Z" agent="Mozilla/5.0 (Windows NT 10.0; Win64; x64) AppleWebKit/537.36 (KHTML, like Gecko) Chrome/126.0.0.0 Safari/537.36" version="24.6.4" etag="HlFw3SBpHo7B5y2MWZ4m" type="github">
  <diagram name="Page-1" id="K745nRF2143MYI0o34Q8">
    <mxGraphModel>
      <root>
        <mxCell id="0" />
        <mxCell id="1" parent="0" />
      </root>
    </mxGraphModel>
  </diagram>
</mxfile>
